<svg version="1.0" xmlns="http://www.w3.org/2000/svg"
width="256.000000pt" height="256.000000pt" viewBox="0 0 256.000000 256.000000"
preserveAspectRatio="xMidYMid meet">
<g transform="translate(0.000000,256.000000) scale(0.100000,-0.100000)"
fill="#000000" stroke="none">
<path d="M1116 2549 c-483 -67 -895 -404 -1046 -857 -50 -152 -64 -242 -64
-412 0 -171 14 -260 65 -415 121 -362 433 -673 797 -795 152 -50 242 -64 412
-64 274 0 482 62 710 212 277 183 475 480 547 822 24 117 24 363 0 480 -57
271 -178 492 -371 678 -182 175 -391 286 -641 337 -96 20 -314 28 -409 14z
m319 -323 c111 -20 176 -42 269 -87 475 -235 669 -807 435 -1282 -235 -477
-807 -671 -1282 -436 -97 48 -163 94 -240 168 -303 291 -382 739 -196 1114
187 378 609 596 1014 523z"/>
</g>
</svg>
